<svg width="32" height="32" viewBox="0 0 32 32" fill="none" xmlns="http://www.w3.org/2000/svg">
<g id="27) Icon/close" opacity="0.7">
<path id="&#240;&#159;&#142;&#168; Icon &#208;&#161;olor" fill-rule="evenodd" clip-rule="evenodd" d="M17.8857 16L23.6097 10.276C24.131 9.75469 24.131 8.91203 23.6097 8.39069C23.0883 7.86936 22.2457 7.86936 21.7243 8.39069L16.0003 14.1147L10.2763 8.39069C9.755 7.86936 8.91233 7.86936 8.391 8.39069C7.86967 8.91203 7.86967 9.75469 8.391 10.276L14.115 16L8.391 21.724C7.86967 22.2454 7.86967 23.088 8.391 23.6094C8.651 23.8694 8.99233 24 9.33367 24C9.675 24 10.0163 23.8694 10.2763 23.6094L16.0003 17.8854L21.7243 23.6094C21.9843 23.8694 22.3257 24 22.667 24C23.0083 24 23.3497 23.8694 23.6097 23.6094C24.131 23.088 24.131 22.2454 23.6097 21.724L17.8857 16Z" fill="white"/>
<mask id="mask0_317_239" style="mask-type:alpha" maskUnits="userSpaceOnUse" x="8" y="7" width="17" height="17">
<path id="&#240;&#159;&#142;&#168; Icon &#208;&#161;olor_2" fill-rule="evenodd" clip-rule="evenodd" d="M17.8857 16L23.6097 10.276C24.131 9.75469 24.131 8.91203 23.6097 8.39069C23.0883 7.86936 22.2457 7.86936 21.7243 8.39069L16.0003 14.1147L10.2763 8.39069C9.755 7.86936 8.91233 7.86936 8.391 8.39069C7.86967 8.91203 7.86967 9.75469 8.391 10.276L14.115 16L8.391 21.724C7.86967 22.2454 7.86967 23.088 8.391 23.6094C8.651 23.8694 8.99233 24 9.33367 24C9.675 24 10.0163 23.8694 10.2763 23.6094L16.0003 17.8854L21.7243 23.6094C21.9843 23.8694 22.3257 24 22.667 24C23.0083 24 23.3497 23.8694 23.6097 23.6094C24.131 23.088 24.131 22.2454 23.6097 21.724L17.8857 16Z" fill="white"/>
</mask>
<g mask="url(#mask0_317_239)">
</g>
</g>
</svg>
