<svg width="79" height="79" viewBox="0 0 79 79" fill="none" xmlns="http://www.w3.org/2000/svg">
<g id="27) Icon/checkmark-circle-fill">
<path id="&#240;&#159;&#142;&#168; Icon &#208;&#161;olor" fill-rule="evenodd" clip-rule="evenodd" d="M53.6393 31.6181L38.603 51.3681C37.9842 52.1811 37.0263 52.6617 36.0059 52.6683H35.9828C34.9723 52.6683 34.0177 52.2009 33.3923 51.4043L25.387 41.1771C24.2678 39.7485 24.518 37.678 25.9498 36.5589C27.3784 35.4364 29.4522 35.6866 30.5713 37.1218L35.9466 43.9882L48.4023 27.6319C49.5017 26.1868 51.5656 25.9038 53.0172 27.0065C54.4623 28.1092 54.7421 30.173 53.6393 31.6181ZM39.5016 6.58496C21.3218 6.58496 6.58496 21.3218 6.58496 39.5016C6.58496 57.6782 21.3218 72.4183 39.5016 72.4183C57.6815 72.4183 72.4183 57.6782 72.4183 39.5016C72.4183 21.3218 57.6815 6.58496 39.5016 6.58496Z" fill="#56CD7A"/>
<mask id="mask0_317_378" style="mask-type:alpha" maskUnits="userSpaceOnUse" x="6" y="6" width="67" height="67">
<path id="&#240;&#159;&#142;&#168; Icon &#208;&#161;olor_2" fill-rule="evenodd" clip-rule="evenodd" d="M53.6393 31.6181L38.603 51.3681C37.9842 52.1811 37.0263 52.6617 36.0059 52.6683H35.9828C34.9723 52.6683 34.0177 52.2009 33.3923 51.4043L25.387 41.1771C24.2678 39.7485 24.518 37.678 25.9498 36.5589C27.3784 35.4364 29.4522 35.6866 30.5713 37.1218L35.9466 43.9882L48.4023 27.6319C49.5017 26.1868 51.5656 25.9038 53.0172 27.0065C54.4623 28.1092 54.7421 30.173 53.6393 31.6181ZM39.5016 6.58496C21.3218 6.58496 6.58496 21.3218 6.58496 39.5016C6.58496 57.6782 21.3218 72.4183 39.5016 72.4183C57.6815 72.4183 72.4183 57.6782 72.4183 39.5016C72.4183 21.3218 57.6815 6.58496 39.5016 6.58496Z" fill="white"/>
</mask>
<g mask="url(#mask0_317_378)">
</g>
</g>
</svg>
