<svg width="32" height="32" viewBox="0 0 32 32" fill="none" xmlns="http://www.w3.org/2000/svg">
<path fill-rule="evenodd" clip-rule="evenodd" d="M14.6706 16.1012C14.6681 16.0678 14.6668 16.034 14.6668 16V5.33333C14.6668 4.59733 15.2628 4 16.0002 4C16.7375 4 17.3335 4.59733 17.3335 5.33333V15.9998L20.5335 13.6C21.1228 13.156 21.9588 13.2773 22.4002 13.8667C22.8428 14.456 22.7228 15.292 22.1335 15.7333L16.8002 19.7333C16.5642 19.9107 16.2815 20 16.0002 20C15.7322 20 15.4642 19.9187 15.2335 19.7573L9.90016 16.0053C9.2975 15.5813 9.15216 14.7493 9.57616 14.148C10.0002 13.5453 10.8308 13.4 11.4335 13.824L14.6706 16.1012ZM8.00016 22.6667V24H24.0002V22.6667C24.0002 21.9333 24.6002 21.3333 25.3335 21.3333C26.0668 21.3333 26.6668 21.9333 26.6668 22.6667V25.3333C26.6668 26.0667 26.0668 26.6667 25.3335 26.6667H6.66683C5.9335 26.6667 5.3335 26.0667 5.3335 25.3333V22.6667C5.3335 21.9333 5.9335 21.3333 6.66683 21.3333C7.40016 21.3333 8.00016 21.9333 8.00016 22.6667Z" fill="white"/>
<mask id="mask0_317_163" style="mask-type:alpha" maskUnits="userSpaceOnUse" x="5" y="4" width="22" height="23">
<path fill-rule="evenodd" clip-rule="evenodd" d="M14.6706 16.1012C14.6681 16.0678 14.6668 16.034 14.6668 16V5.33333C14.6668 4.59733 15.2628 4 16.0002 4C16.7375 4 17.3335 4.59733 17.3335 5.33333V15.9998L20.5335 13.6C21.1228 13.156 21.9588 13.2773 22.4002 13.8667C22.8428 14.456 22.7228 15.292 22.1335 15.7333L16.8002 19.7333C16.5642 19.9107 16.2815 20 16.0002 20C15.7322 20 15.4642 19.9187 15.2335 19.7573L9.90016 16.0053C9.2975 15.5813 9.15216 14.7493 9.57616 14.148C10.0002 13.5453 10.8308 13.4 11.4335 13.824L14.6706 16.1012ZM8.00016 22.6667V24H24.0002V22.6667C24.0002 21.9333 24.6002 21.3333 25.3335 21.3333C26.0668 21.3333 26.6668 21.9333 26.6668 22.6667V25.3333C26.6668 26.0667 26.0668 26.6667 25.3335 26.6667H6.66683C5.9335 26.6667 5.3335 26.0667 5.3335 25.3333V22.6667C5.3335 21.9333 5.9335 21.3333 6.66683 21.3333C7.40016 21.3333 8.00016 21.9333 8.00016 22.6667Z" fill="white"/>
</mask>
<g mask="url(#mask0_317_163)">
</g>
</svg>
