<svg width="75" height="64" viewBox="0 0 75 64" fill="none" xmlns="http://www.w3.org/2000/svg">
<path fill-rule="evenodd" clip-rule="evenodd" d="M40.8288 37.3333C40.8288 39.1733 39.3354 40.6666 37.4954 40.6666C35.6554 40.6666 34.1621 39.1733 34.1621 37.3333V24C34.1621 22.16 35.6554 20.6666 37.4954 20.6666C39.3354 20.6666 40.8288 22.16 40.8288 24V37.3333ZM37.4954 50.6667C35.6554 50.6667 34.1621 49.1733 34.1621 47.3333C34.1621 45.4933 35.6554 44 37.4954 44C39.3354 44 40.8288 45.4933 40.8288 47.3333C40.8288 49.1733 39.3354 50.6667 37.4954 50.6667ZM72.6998 48.3433L47.1264 5.94663C45.1298 2.63996 41.5298 0.666626 37.4964 0.666626C33.4631 0.666626 29.8631 2.63996 27.8664 5.94663L2.29312 48.3433C0.399782 51.4866 0.343115 55.2666 2.14312 58.4533C4.07312 61.8766 7.82311 64 11.9231 64H63.0698C67.1698 64 70.9198 61.8766 72.8498 58.4533C74.6498 55.2666 74.5931 51.4866 72.6998 48.3433Z" fill="#F2C94C"/>
</svg>
