<?xml version="1.0" standalone="no"?>
<!DOCTYPE svg PUBLIC "-//W3C//DTD SVG 20010904//EN"
 "http://www.w3.org/TR/2001/REC-SVG-20010904/DTD/svg10.dtd">
<svg version="1.0" xmlns="http://www.w3.org/2000/svg"
 width="411.000000pt" height="411.000000pt" viewBox="0 0 411.000000 411.000000"
 preserveAspectRatio="xMidYMid meet">
<metadata>
Created by potrace 1.14, written by Peter Selinger 2001-2017
</metadata>
<g transform="translate(0.000000,411.000000) scale(0.100000,-0.100000)"
fill="#000000" stroke="none">
<path d="M1325 3600 c-339 -60 -611 -195 -846 -422 -254 -244 -424 -586 -466
-937 -9 -70 -9 -286 0 -366 20 -186 83 -388 175 -558 144 -266 387 -511 633
-637 46 -23 89 -46 94 -49 46 -31 264 -97 395 -120 148 -26 414 -23 557 8 296
62 560 198 768 395 77 73 91 101 72 143 -5 12 -22 26 -37 32 -34 11 -48 3
-145 -88 -192 -180 -486 -321 -742 -357 -71 -10 -348 -12 -403 -3 -30 5 -70
11 -89 14 -47 7 -185 48 -248 74 -332 132 -617 401 -767 722 -90 194 -129 369
-130 584 -1 166 7 237 40 368 29 116 43 154 95 266 76 160 157 272 298 409
183 180 409 304 656 362 131 31 172 35 350 34 184 -1 284 -17 440 -69 171 -58
374 -178 499 -295 67 -63 86 -82 141 -145 38 -44 136 -191 170 -257 33 -64 56
-79 102 -66 22 6 34 17 42 38 9 27 5 39 -32 110 -115 217 -306 429 -512 567
-150 100 -383 199 -540 228 -16 3 -55 11 -85 16 -99 20 -373 19 -485 -1z"/>
<path d="M1381 3293 c-47 -7 -86 -15 -88 -17 -2 -2 45 -3 104 -3 223 2 403
-26 587 -89 105 -36 235 -93 296 -129 19 -12 58 -34 85 -49 l50 -27 -40 35
c-141 126 -360 230 -567 272 -108 21 -319 25 -427 7z"/>
<path d="M1490 3048 c-41 -4 -93 -11 -115 -16 -33 -8 -21 -9 70 -11 61 0 119
-3 130 -5 11 -2 47 -7 80 -10 178 -21 392 -98 563 -203 45 -27 -35 41 -96 83
-175 118 -421 182 -632 162z"/>
<path d="M1165 2838 c-57 -33 -55 -16 -55 -458 0 -377 1 -413 20 -471 45 -148
167 -269 313 -313 72 -22 202 -20 279 4 57 17 174 89 191 117 3 4 -13 37 -34
72 -21 35 -41 79 -45 98 -7 39 -17 42 -32 9 -16 -37 -92 -92 -147 -109 -96
-28 -196 -3 -266 67 -58 57 -74 99 -74 191 0 69 4 87 28 130 15 28 47 64 70
81 175 130 407 26 432 -193 2 -21 7 -62 10 -91 14 -129 102 -257 224 -330 143
-84 351 -85 466 -1 36 27 41 28 45 12 13 -48 49 -73 102 -73 37 1 57 13 80 50
12 21 15 64 13 245 -1 251 -6 286 -46 372 -108 228 -385 330 -615 226 -52 -23
-144 -92 -144 -108 0 -7 10 -24 21 -39 12 -15 34 -56 49 -92 l27 -65 18 28
c89 137 288 157 409 40 128 -125 95 -350 -63 -431 -91 -48 -228 -32 -299 34
-64 60 -87 113 -96 225 -10 117 -23 155 -77 235 -47 70 -89 110 -163 154 -127
76 -333 81 -453 10 l-43 -25 0 170 0 171 -27 30 c-31 34 -86 48 -118 28z"/>
<path d="M3964 2839 c-47 -24 -54 -56 -54 -233 0 -91 -3 -166 -6 -166 -3 0
-18 8 -32 18 -57 39 -149 60 -249 56 -103 -4 -202 -40 -272 -100 -27 -23 -30
-29 -19 -43 24 -28 56 -95 67 -138 l12 -42 34 38 c20 21 58 49 87 61 189 81
396 -69 374 -272 -7 -75 -34 -125 -92 -177 -53 -47 -105 -65 -184 -64 -68 1
-116 20 -168 68 -65 58 -85 110 -89 234 -4 119 -4 120 -22 176 -28 82 -118
182 -199 221 -124 59 -282 48 -387 -27 -72 -51 -80 -59 -69 -67 16 -11 74 -99
90 -138 l15 -36 35 40 c74 87 216 87 290 -1 39 -46 45 -70 48 -191 5 -165 46
-261 156 -359 91 -82 184 -117 311 -117 217 0 406 148 455 357 9 37 12 171 13
448 l1 395 -28 30 c-30 34 -83 47 -118 29z"/>
<path d="M1461 2789 c-63 -12 -60 -16 11 -18 186 -4 389 -54 521 -128 75 -42
80 -42 26 2 -59 48 -188 109 -273 130 -78 19 -219 26 -285 14z"/>
<path d="M3175 1743 c3 -114 1 -106 31 -137 34 -33 89 -35 128 -5 l26 21 -27
21 c-46 35 -94 89 -125 139 -17 27 -31 48 -32 48 -2 0 -2 -39 -1 -87z"/>
<path d="M1077 1497 c12 -20 155 -105 209 -125 122 -45 277 -63 392 -45 47 8
39 18 -16 19 -174 2 -354 43 -494 112 -53 26 -94 43 -91 39z"/>
<path d="M2006 1421 c-1 -3 -2 -55 -2 -115 1 -96 3 -109 19 -112 9 -1 17 1 18
4 1 4 2 21 4 37 3 42 3 41 25 42 16 1 53 -36 76 -75 1 -2 14 -5 28 -8 l27 -5
-30 44 -30 44 24 22 c17 14 25 31 25 54 0 52 -26 68 -110 71 -39 2 -72 0 -74
-3z m132 -43 c33 -33 3 -66 -58 -64 -32 1 -35 4 -36 31 0 17 1 33 3 38 7 12
78 8 91 -5z"/>
<path d="M2383 1416 c-35 -16 -64 -63 -65 -105 -3 -105 133 -158 208 -80 24
25 29 38 28 80 -1 42 -6 56 -30 79 -36 36 -95 46 -141 26z m102 -43 c39 -39
36 -111 -5 -133 -53 -28 -120 11 -120 70 0 63 84 105 125 63z"/>
<path d="M2656 1423 c-3 -3 14 -33 37 -67 31 -45 43 -74 47 -111 3 -35 9 -50
20 -50 11 0 17 15 20 50 4 37 16 66 48 113 24 34 41 62 40 63 -33 8 -42 3 -71
-42 -18 -27 -34 -49 -37 -49 -3 0 -18 21 -35 47 -27 42 -54 60 -69 46z"/>
<path d="M3018 1382 c-11 -26 -34 -76 -49 -111 -16 -35 -27 -67 -24 -70 15
-15 35 -6 44 20 9 27 13 29 66 29 49 0 57 -3 67 -24 11 -25 36 -41 46 -31 3 3
-5 29 -17 58 -13 28 -34 79 -47 112 -32 80 -57 84 -86 17z m57 -49 c8 -20 14
-37 12 -39 -7 -7 -57 -12 -61 -6 -4 7 23 82 30 82 2 0 11 -16 19 -37z"/>
<path d="M3302 1311 l3 -116 77 0 c53 0 79 3 82 12 8 19 -9 24 -68 24 l-54 0
0 52 c0 141 -1 143 -22 143 -20 0 -20 -5 -18 -115z"/>
<path d="M3540 1408 c0 -17 15 -22 53 -19 19 2 20 -1 19 -111 -1 -61 2 -77 15
-82 9 -4 18 -4 21 -1 3 3 6 46 6 95 0 84 2 91 21 96 12 3 28 4 36 2 8 -2 14 5
14 17 0 18 -7 19 -92 20 -83 0 -93 -1 -93 -17z"/>
<path d="M3845 1419 c-3 -5 13 -36 36 -70 32 -48 41 -70 41 -102 -1 -43 14
-63 33 -47 6 5 10 25 9 45 -3 28 6 50 41 105 25 37 45 70 45 72 0 2 -9 4 -19
5 -14 1 -30 -14 -52 -48 l-32 -51 -23 29 c-13 15 -26 35 -29 44 -6 19 -42 32
-50 18z"/>
<path d="M915 1301 c31 -36 129 -100 219 -142 175 -81 345 -108 560 -86 64 7
100 16 65 18 -209 7 -254 12 -391 40 -149 30 -351 108 -442 171 l-31 22 20
-23z"/>
<path d="M710 1136 c0 -8 161 -126 217 -159 122 -71 306 -136 432 -153 25 -3
55 -8 66 -10 24 -6 229 -6 265 0 14 1 49 6 77 10 92 13 65 21 -70 21 -169 0
-260 10 -389 41 -176 42 -321 98 -460 176 -37 21 -83 47 -102 58 -20 11 -36
18 -36 16z"/>
</g>
</svg>
